<?xml version="1.0" encoding="iso-8859-1"?>
<!-- Generator: Adobe Illustrator 17.1.0, SVG Export Plug-In . SVG Version: 6.00 Build 0)  -->
<!DOCTYPE svg PUBLIC "-//W3C//DTD SVG 1.1//EN" "http://www.w3.org/Graphics/SVG/1.1/DTD/svg11.dtd">
<svg version="1.1" id="Capa_1" xmlns="http://www.w3.org/2000/svg" xmlns:xlink="http://www.w3.org/1999/xlink" x="0px" y="0px"
	 viewBox="0 0 310.285 310.285" style="enable-background:new 0 0 310.285 310.285;" xml:space="preserve">
<path d="M264.845,45.441C235.542,16.139,196.582,0,155.143,0S74.743,16.139,45.44,45.441C16.138,74.743,0,113.703,0,155.143
	c0,41.439,16.138,80.399,45.44,109.701c29.303,29.303,68.262,45.44,109.702,45.44s80.399-16.138,109.702-45.44
	c29.302-29.302,45.44-68.262,45.44-109.701C310.285,113.703,294.147,74.743,264.845,45.441z M189.702,157.985l38.669,38.669
	c3.12,3.119,3.12,8.194,0,11.313l-22.333,22.333c-1.507,1.507-3.516,2.337-5.657,2.337c-2.141,0-4.15-0.83-5.657-2.337
	l-38.669-38.669c-0.748-0.746-2.08-0.746-2.829,0l-38.669,38.669c-1.507,1.507-3.516,2.337-5.657,2.337
	c-2.141,0-4.149-0.83-5.657-2.336l-22.333-22.334c-1.507-1.507-2.337-3.516-2.337-5.656c0-2.142,0.83-4.15,2.337-5.657
	l38.669-38.669c0.766-0.767,0.766-2.063-0.001-2.829l-40.302-40.302c-1.507-1.507-2.337-3.516-2.337-5.657
	c0-2.141,0.83-4.149,2.337-5.656l22.333-22.333c1.507-1.507,3.516-2.337,5.657-2.337c2.141,0,4.149,0.83,5.656,2.337l40.303,40.303
	c0.749,0.747,2.081,0.746,2.828,0l40.303-40.303c1.507-1.507,3.516-2.337,5.657-2.337c2.141,0,4.149,0.83,5.656,2.337l22.333,22.333
	c1.507,1.507,2.337,3.516,2.337,5.656c0,2.142-0.83,4.15-2.337,5.658l-40.302,40.301
	C188.936,155.923,188.936,157.219,189.702,157.985z"/>
<g>
</g>
<g>
</g>
<g>
</g>
<g>
</g>
<g>
</g>
<g>
</g>
<g>
</g>
<g>
</g>
<g>
</g>
<g>
</g>
<g>
</g>
<g>
</g>
<g>
</g>
<g>
</g>
<g>
</g>
</svg>
