<?xml version='1.0' encoding='iso-8859-1'?>
<!DOCTYPE svg PUBLIC '-//W3C//DTD SVG 1.1//EN' 'http://www.w3.org/Graphics/SVG/1.1/DTD/svg11.dtd'>
<svg version="1.1" xmlns="http://www.w3.org/2000/svg" viewBox="0 0 289.658 289.658" xmlns:xlink="http://www.w3.org/1999/xlink" enable-background="new 0 0 289.658 289.658">
  <path d="m245.758,128.041h-14.217v-41.329c0-47.813-38.899-86.712-86.712-86.712-47.813,0-86.712,38.899-86.712,86.712v41.329h-14.217c-8.285,0-15.001,6.716-15.001,15.001v131.613c0,8.285 6.716,15.002 15.001,15.002h201.858c8.285,0 15.002-6.716 15.002-15.002v-131.612c0-8.285-6.717-15.002-15.002-15.002zm-151.221-41.329c0-27.731 22.561-50.292 50.292-50.292 27.731,0 50.292,22.561 50.292,50.292v41.329h-100.584v-41.329zm66.64,127.127v26.904c0,9.029-7.319,16.348-16.348,16.348-9.029,0-16.348-7.319-16.348-16.348v-26.904c-6.081-4.824-9.986-12.272-9.986-20.638 0-14.544 11.79-26.335 26.334-26.335 14.544,0 26.334,11.791 26.334,26.335 2.84217e-14,8.366-3.905,15.815-9.986,20.638z"/>
</svg>
