<?xml version="1.0" encoding="iso-8859-1"?>
<!-- Generator: Adobe Illustrator 16.0.0, SVG Export Plug-In . SVG Version: 6.00 Build 0)  -->
<!DOCTYPE svg PUBLIC "-//W3C//DTD SVG 1.1//EN" "http://www.w3.org/Graphics/SVG/1.1/DTD/svg11.dtd">
<svg version="1.1" id="Capa_1" xmlns="http://www.w3.org/2000/svg" xmlns:xlink="http://www.w3.org/1999/xlink" x="0px" y="0px"
	 width="188.653px" height="188.653px" viewBox="0 0 188.653 188.653" style="enable-background:new 0 0 188.653 188.653;"
	 xml:space="preserve">
<g>
	<g>
		<path d="M30.224,101.065c-5.003-2.992-9.74-1.965-13.589,1.159c-5.419,1.493-10.04,4.97-12.143,11.012
			c-3.321,9.539-1.521,22.177,8.935,26.376c10.041,4.032,19.333-2.445,22.941-11.851C39.37,119.933,38.245,105.862,30.224,101.065z"
			/>
		<path d="M176.052,102.957c-0.142-0.417-0.466-0.767-1.079-0.889c-11.221-2.229-18.699,6.689-20.422,17.076
			c-1.423,8.576,1.711,21.349,11.736,22.646c9.096,1.178,16.188-10.711,18.475-17.77
			C187.325,116.11,184.493,104.878,176.052,102.957z"/>
		<path d="M171.034,95.02c0.938,3.786,6.771,2.18,5.836-1.609c-1.892-7.664-2.545-15.441-2.064-23.315
			c0.305-4.99,0.876-9.747,0.102-14.722c-1.5-9.641-12.701-10.759-20.471-10.431c-17.601,0.743-44.238,11.107-54.168,27.501
			c-8.121-16.961-36.72-20.967-52.678-23.555c-6.708-1.087-23.721-4.135-26.675,5.227c-3.87,12.267-4.925,27.949-4.127,40.688
			c0.095,1.512,1.253,3.003,2.91,2.91c0.196-0.013,0.392-0.021,0.588-0.026c2.343-0.084,3.378-2.348,2.489-4.338
			c-0.057-0.213-0.114-0.425-0.17-0.638c-0.008-10.304,1.223-20.5,2.968-30.659c0.83-4.835,0.977-6.629,6.12-7.884
			c6.285-1.534,12.779,0.304,18.977,1.38c15.243,2.646,35.411,6.3,44.383,20.217c0.32,5.011,1.714,9.813,1.691,15.022
			c-0.035,8.517-0.836,17.033-1.404,25.526c-0.613,9.146,0.041,18.129,0.359,27.284c0.411,11.837,0.096,23.717,0.497,35.555
			c-17.831-16.621-48.034-19.205-71.122-13.951c0.037-4.633-0.154-9.255-0.602-13.877c-0.229-2.357-3.427-2.354-3.66,0
			c-0.582,5.894-0.926,11.788-1.705,17.663c-0.26,1.964,2.068,3.268,3.73,2.841c23.387-6.022,56.433-4.044,73.01,15.801
			c1.122,1.343,2.59,1.229,3.658,0.429c0.427-0.048,0.823-0.224,1.187-0.461c0.272,0.168,0.582,0.303,0.957,0.351
			c2.865,0.364,6.061-1.63,8.557-2.836c5.386-2.603,10.574-5.631,15.826-8.485c13.246-7.195,30.33-11.283,44.758-5.297
			c1.865,0.774,3.846-1.141,3.846-2.929c0-3.938,1.6-10.935-1.414-13.988c-0.875-0.886-2.373-0.886-3.247,0
			c-2.079,2.107-1.962,6.089-1.69,9.649c-11.938-3.388-26.123-1.366-37.252,3.347c-5.892,2.494-11.371,6.06-16.859,9.308
			c-3.855,2.283-8.407,4.178-12.188,6.661c1.141-23.609-1.94-47.223-0.314-70.784c0.621-9.01,1.363-18.04,1.088-27.078
			c-0.062-2.08-0.08-5.143-0.801-7.736c11.945-13.784,29.455-22.647,47.232-26.108c4.422-0.86,9.073-1.009,13.516-0.247
			c6.871,1.18,6.793,6.97,6.535,12.417C168.733,74.523,168.435,84.521,171.034,95.02z"/>
		<path d="M133.021,29.808C127.2,12.693,110.749-1.745,92.019,0.171C76.327,1.778,56.541,21.214,59.504,37.818
			c0.276,1.544,1.65,2.093,2.926,1.871c0.273,0.049,0.54,0.115,0.809,0.175c0.473,0.364,0.959,0.704,1.435,1.062
			c0.167,0.444,0.464,0.856,0.928,1.168c5.375,3.616,10.47,7.479,16.425,10.112c0.656,0.29,1.29,0.296,1.85,0.127
			c6.494,4.669,13.246,8.076,21.848,4.814c7.766-2.944,15.428-8.259,22.387-12.774C133.622,40.795,135.091,35.897,133.021,29.808z"
			/>
	</g>
</g>
<g>
</g>
<g>
</g>
<g>
</g>
<g>
</g>
<g>
</g>
<g>
</g>
<g>
</g>
<g>
</g>
<g>
</g>
<g>
</g>
<g>
</g>
<g>
</g>
<g>
</g>
<g>
</g>
<g>
</g>
</svg>
