<?xml version="1.0" encoding="iso-8859-1"?>
<!-- Generator: Adobe Illustrator 16.0.0, SVG Export Plug-In . SVG Version: 6.00 Build 0)  -->
<!DOCTYPE svg PUBLIC "-//W3C//DTD SVG 1.1//EN" "http://www.w3.org/Graphics/SVG/1.1/DTD/svg11.dtd">
<svg version="1.1" id="Capa_1" xmlns="http://www.w3.org/2000/svg" xmlns:xlink="http://www.w3.org/1999/xlink" x="0px" y="0px"
	 width="45.969px" height="45.969px" viewBox="0 0 45.969 45.969" style="enable-background:new 0 0 45.969 45.969;"
	 xml:space="preserve">
<g>
	<g>
		<path d="M21.942,30.179c-0.805,0-1.597,0.138-2.347,0.405c-1.454-2.193-3.913-3.545-6.619-3.545c-3.214,0-6.072,1.935-7.308,4.826
			C2.491,32.18,0,34.869,0,38.129c0,3.47,2.823,6.293,6.293,6.293l15.467-0.016c3.906,0,7.207-3.299,7.207-7.203
			C28.967,33.328,25.815,30.179,21.942,30.179z M21.76,41.406L6.293,41.422C4.478,41.422,3,39.945,3,38.129s1.478-3.294,3.293-3.294
			c0.104,0,0.209,0.008,0.311,0.017c0.737,0.061,1.4-0.406,1.586-1.113c0.57-2.178,2.538-3.699,4.786-3.699
			c2.021,0,3.822,1.213,4.586,3.09c0.169,0.414,0.513,0.73,0.938,0.865c0.425,0.134,0.89,0.072,1.265-0.17
			c0.652-0.424,1.405-0.646,2.177-0.646c2.219,0,4.024,1.806,4.024,4.024C25.967,39.441,24,41.406,21.76,41.406z"/>
		<path d="M39.793,5.058c-1.232,0-2.378,0.365-3.343,0.988c-1.074-2.638-3.659-4.499-6.683-4.499c-3.353,0-6.163,2.29-6.974,5.388
			C22.631,6.92,22.464,6.91,22.296,6.91c-2.96,0-5.358,2.399-5.358,5.36c0,2.959,2.398,5.358,5.358,5.358
			c1.836,0,14.99-0.017,17.293-0.017c3.411,0,6.379-2.968,6.379-6.377C45.971,7.822,43.204,5.058,39.793,5.058z"/>
		<path d="M3.97,30.179c1.104,0,2-0.896,2-2v-4c0-1.104-0.896-2-2-2s-2,0.896-2,2v4C1.97,29.283,2.866,30.179,3.97,30.179z"/>
		<path d="M8.97,11.179h4c1.104,0,2-0.896,2-2s-0.896-2-2-2h-4c-1.104,0-2,0.896-2,2S7.866,11.179,8.97,11.179z"/>
		<path d="M3.97,18.179c1.104,0,2-0.896,2-2v-4c0-1.104-0.896-2-2-2s-2,0.896-2,2v4C1.97,17.283,2.866,18.179,3.97,18.179z"/>
		<path d="M36.971,38.179h-4c-1.104,0-2,0.896-2,2s0.896,2,2,2h4c1.104,0,2-0.896,2-2S38.074,38.179,36.971,38.179z"/>
		<path d="M41.971,19.179c-1.104,0-2,0.896-2,2v4c0,1.104,0.896,2,2,2c1.104,0,2-0.896,2-2v-4
			C43.971,20.075,43.074,19.179,41.971,19.179z"/>
		<path d="M41.971,31.179c-1.104,0-2,0.896-2,2v4c0,1.104,0.896,2,2,2c1.104,0,2-0.896,2-2v-4
			C43.971,32.074,43.074,31.179,41.971,31.179z"/>
	</g>
</g>
<g>
</g>
<g>
</g>
<g>
</g>
<g>
</g>
<g>
</g>
<g>
</g>
<g>
</g>
<g>
</g>
<g>
</g>
<g>
</g>
<g>
</g>
<g>
</g>
<g>
</g>
<g>
</g>
<g>
</g>
</svg>
